<mxfile host="app.diagrams.net" agent="Mozilla/5.0 (Windows NT 10.0; Win64; x64) AppleWebKit/537.36 (KHTML, like Gecko) Chrome/130.0.0.0 Safari/537.36" version="24.8.3">
  <diagram name="Halaman-1" id="qTOW1-HexOd1q7XH1WQv">
    <mxGraphModel grid="1" page="1" gridSize="10" guides="1" tooltips="1" connect="1" arrows="1" fold="1" pageScale="1" pageWidth="827" pageHeight="1169" math="0" shadow="0">
      <root>
        <mxCell id="0" />
        <mxCell id="1" parent="0" />
        <mxCell id="WC0ZGZ3eZQcWdwqWbL3J-2" value="" style="endArrow=classic;html=1;rounded=0;exitX=0.5;exitY=1;exitDx=0;exitDy=0;" edge="1" parent="1">
          <mxGeometry width="50" height="50" relative="1" as="geometry">
            <mxPoint x="352.5" y="100" as="sourcePoint" />
            <mxPoint x="352.5" y="160" as="targetPoint" />
          </mxGeometry>
        </mxCell>
        <mxCell id="WC0ZGZ3eZQcWdwqWbL3J-3" value="" style="endArrow=classic;html=1;rounded=0;exitX=0.5;exitY=1;exitDx=0;exitDy=0;" edge="1" parent="1">
          <mxGeometry width="50" height="50" relative="1" as="geometry">
            <mxPoint x="352.5" y="240" as="sourcePoint" />
            <mxPoint x="352.5" y="300" as="targetPoint" />
          </mxGeometry>
        </mxCell>
        <mxCell id="WC0ZGZ3eZQcWdwqWbL3J-4" value="&lt;font face=&quot;Comic Sans MS&quot;&gt;&lt;span style=&quot;font-size: 14px;&quot;&gt;Tampilkan di LCD&lt;/span&gt;&lt;/font&gt;&lt;div&gt;&lt;font face=&quot;Comic Sans MS&quot;&gt;&lt;span style=&quot;font-size: 14px;&quot;&gt;&#39;Mengukur..&#39;&lt;/span&gt;&lt;/font&gt;&lt;/div&gt;" style="rounded=0;whiteSpace=wrap;html=1;" vertex="1" parent="1">
          <mxGeometry x="294" y="300" width="120" height="60" as="geometry" />
        </mxCell>
        <mxCell id="WC0ZGZ3eZQcWdwqWbL3J-5" value="" style="endArrow=classic;html=1;rounded=0;exitX=0.5;exitY=1;exitDx=0;exitDy=0;" edge="1" parent="1">
          <mxGeometry width="50" height="50" relative="1" as="geometry">
            <mxPoint x="353.5" y="360" as="sourcePoint" />
            <mxPoint x="353.5" y="420" as="targetPoint" />
          </mxGeometry>
        </mxCell>
        <mxCell id="WC0ZGZ3eZQcWdwqWbL3J-6" value="&lt;div&gt;&lt;font style=&quot;font-size: 14px;&quot; face=&quot;Comic Sans MS&quot;&gt;&lt;br&gt;&lt;/font&gt;&lt;/div&gt;&lt;font style=&quot;&quot; face=&quot;Comic Sans MS&quot;&gt;&lt;div style=&quot;font-size: 14px;&quot;&gt;&lt;font style=&quot;&quot; face=&quot;Comic Sans MS&quot;&gt;&lt;br&gt;&lt;/font&gt;&lt;/div&gt;&lt;font style=&quot;font-size: 14px;&quot;&gt;Inisialisasi&lt;/font&gt;&lt;/font&gt;&lt;div style=&quot;text-align: left;&quot;&gt;&lt;span style=&quot;background-color: initial; font-family: &amp;quot;Comic Sans MS&amp;quot;; font-size: 14px;&quot;&gt;- Serial Monitor&lt;/span&gt;&lt;/div&gt;&lt;div style=&quot;text-align: left;&quot;&gt;&lt;span style=&quot;background-color: initial; font-family: &amp;quot;Comic Sans MS&amp;quot;; font-size: 14px;&quot;&gt;- Sensor DHT&lt;/span&gt;&lt;/div&gt;&lt;div&gt;&lt;div style=&quot;text-align: left;&quot;&gt;&lt;span style=&quot;background-color: initial; font-family: &amp;quot;Comic Sans MS&amp;quot;; font-size: 14px;&quot;&gt;- LCD I2C&lt;/span&gt;&lt;/div&gt;&lt;div&gt;&lt;div&gt;&lt;div style=&quot;text-align: left;&quot;&gt;&lt;font size=&quot;3&quot;&gt;&lt;br&gt;&lt;/font&gt;&lt;/div&gt;&lt;/div&gt;&lt;div&gt;&lt;div&gt;&lt;br&gt;&lt;/div&gt;&lt;/div&gt;&lt;/div&gt;&lt;/div&gt;" style="rounded=0;whiteSpace=wrap;html=1;" vertex="1" parent="1">
          <mxGeometry x="250" y="160" width="200" height="80" as="geometry" />
        </mxCell>
        <mxCell id="WC0ZGZ3eZQcWdwqWbL3J-7" value="&lt;font face=&quot;Comic Sans MS&quot;&gt;&lt;span style=&quot;font-size: 14px;&quot;&gt;Baca&amp;nbsp;&lt;/span&gt;&lt;/font&gt;&lt;div&gt;&lt;font face=&quot;Comic Sans MS&quot;&gt;&lt;span style=&quot;font-size: 14px;&quot;&gt;Kelembaban&lt;/span&gt;&lt;/font&gt;&lt;/div&gt;" style="rounded=0;whiteSpace=wrap;html=1;" vertex="1" parent="1">
          <mxGeometry x="294" y="420" width="120" height="60" as="geometry" />
        </mxCell>
        <mxCell id="WC0ZGZ3eZQcWdwqWbL3J-8" value="&lt;font face=&quot;Comic Sans MS&quot;&gt;&lt;span style=&quot;font-size: 14px;&quot;&gt;Baca Suhu&lt;/span&gt;&lt;/font&gt;" style="rounded=0;whiteSpace=wrap;html=1;" vertex="1" parent="1">
          <mxGeometry x="293.5" y="540" width="120" height="60" as="geometry" />
        </mxCell>
        <mxCell id="WC0ZGZ3eZQcWdwqWbL3J-9" value="" style="endArrow=classic;html=1;rounded=0;exitX=0.5;exitY=1;exitDx=0;exitDy=0;" edge="1" parent="1">
          <mxGeometry width="50" height="50" relative="1" as="geometry">
            <mxPoint x="353" y="600" as="sourcePoint" />
            <mxPoint x="353" y="660" as="targetPoint" />
          </mxGeometry>
        </mxCell>
        <mxCell id="WC0ZGZ3eZQcWdwqWbL3J-10" value="&lt;font style=&quot;font-size: 14px;&quot; face=&quot;Comic Sans MS&quot;&gt;Pembacaan Berhasil?&lt;/font&gt;" style="rhombus;whiteSpace=wrap;html=1;" vertex="1" parent="1">
          <mxGeometry x="293.5" y="660" width="120" height="120" as="geometry" />
        </mxCell>
        <mxCell id="WC0ZGZ3eZQcWdwqWbL3J-11" value="" style="endArrow=classic;html=1;rounded=0;" edge="1" parent="1">
          <mxGeometry width="50" height="50" relative="1" as="geometry">
            <mxPoint x="213.5" y="720" as="sourcePoint" />
            <mxPoint x="213.5" y="810" as="targetPoint" />
          </mxGeometry>
        </mxCell>
        <mxCell id="WC0ZGZ3eZQcWdwqWbL3J-12" value="" style="endArrow=none;html=1;rounded=0;entryX=0;entryY=0.5;entryDx=0;entryDy=0;" edge="1" parent="1" target="WC0ZGZ3eZQcWdwqWbL3J-10">
          <mxGeometry width="50" height="50" relative="1" as="geometry">
            <mxPoint x="213.5" y="720" as="sourcePoint" />
            <mxPoint x="263.5" y="670" as="targetPoint" />
          </mxGeometry>
        </mxCell>
        <mxCell id="WC0ZGZ3eZQcWdwqWbL3J-13" value="" style="endArrow=none;html=1;rounded=0;entryX=0;entryY=0.5;entryDx=0;entryDy=0;" edge="1" parent="1">
          <mxGeometry width="50" height="50" relative="1" as="geometry">
            <mxPoint x="413.5" y="719.5" as="sourcePoint" />
            <mxPoint x="493.5" y="719.5" as="targetPoint" />
          </mxGeometry>
        </mxCell>
        <mxCell id="WC0ZGZ3eZQcWdwqWbL3J-14" value="" style="endArrow=classic;html=1;rounded=0;" edge="1" parent="1">
          <mxGeometry width="50" height="50" relative="1" as="geometry">
            <mxPoint x="493.5" y="720" as="sourcePoint" />
            <mxPoint x="493.5" y="810" as="targetPoint" />
          </mxGeometry>
        </mxCell>
        <mxCell id="WC0ZGZ3eZQcWdwqWbL3J-15" value="" style="endArrow=classic;html=1;rounded=0;exitX=0.5;exitY=1;exitDx=0;exitDy=0;" edge="1" parent="1">
          <mxGeometry width="50" height="50" relative="1" as="geometry">
            <mxPoint x="353.5" y="480" as="sourcePoint" />
            <mxPoint x="353.5" y="540" as="targetPoint" />
          </mxGeometry>
        </mxCell>
        <mxCell id="WC0ZGZ3eZQcWdwqWbL3J-16" value="&lt;font face=&quot;Comic Sans MS&quot;&gt;&lt;span style=&quot;font-size: 14px;&quot;&gt;Tampilkan Error di LCD&lt;/span&gt;&lt;/font&gt;" style="rounded=0;whiteSpace=wrap;html=1;" vertex="1" parent="1">
          <mxGeometry x="160" y="810" width="120" height="60" as="geometry" />
        </mxCell>
        <mxCell id="WC0ZGZ3eZQcWdwqWbL3J-17" value="&lt;font face=&quot;Comic Sans MS&quot;&gt;&lt;span style=&quot;font-size: 14px;&quot;&gt;Tampilkan Kelembaban dan Suhu di Serial Monitor&lt;/span&gt;&lt;/font&gt;" style="rounded=0;whiteSpace=wrap;html=1;" vertex="1" parent="1">
          <mxGeometry x="400" y="810" width="180" height="70" as="geometry" />
        </mxCell>
        <mxCell id="WC0ZGZ3eZQcWdwqWbL3J-18" value="" style="endArrow=classic;html=1;rounded=0;exitX=0.5;exitY=1;exitDx=0;exitDy=0;" edge="1" parent="1">
          <mxGeometry width="50" height="50" relative="1" as="geometry">
            <mxPoint x="500" y="880" as="sourcePoint" />
            <mxPoint x="500" y="940" as="targetPoint" />
          </mxGeometry>
        </mxCell>
        <mxCell id="WC0ZGZ3eZQcWdwqWbL3J-19" value="&lt;font face=&quot;Comic Sans MS&quot;&gt;&lt;span style=&quot;font-size: 14px;&quot;&gt;Bersihkan&lt;/span&gt;&lt;/font&gt;&lt;div&gt;&lt;font face=&quot;Comic Sans MS&quot;&gt;&lt;span style=&quot;font-size: 14px;&quot;&gt;Layar LCD&lt;/span&gt;&lt;/font&gt;&lt;/div&gt;" style="rounded=0;whiteSpace=wrap;html=1;" vertex="1" parent="1">
          <mxGeometry x="440" y="940" width="120" height="60" as="geometry" />
        </mxCell>
        <mxCell id="WC0ZGZ3eZQcWdwqWbL3J-20" value="" style="endArrow=classic;html=1;rounded=0;exitX=0.5;exitY=1;exitDx=0;exitDy=0;" edge="1" parent="1">
          <mxGeometry width="50" height="50" relative="1" as="geometry">
            <mxPoint x="499.5" y="1000" as="sourcePoint" />
            <mxPoint x="499.5" y="1060" as="targetPoint" />
          </mxGeometry>
        </mxCell>
        <mxCell id="WC0ZGZ3eZQcWdwqWbL3J-21" value="&lt;font face=&quot;Comic Sans MS&quot;&gt;&lt;span style=&quot;font-size: 14px;&quot;&gt;Tampilkan Kelembapan dan Suhu di LCD&lt;/span&gt;&lt;/font&gt;" style="rounded=0;whiteSpace=wrap;html=1;" vertex="1" parent="1">
          <mxGeometry x="415" y="1060" width="170" height="70" as="geometry" />
        </mxCell>
        <mxCell id="WC0ZGZ3eZQcWdwqWbL3J-22" value="&lt;font face=&quot;Comic Sans MS&quot;&gt;&lt;span style=&quot;font-size: 14px;&quot;&gt;Tunggu 2 detik&lt;/span&gt;&lt;/font&gt;" style="rounded=0;whiteSpace=wrap;html=1;" vertex="1" parent="1">
          <mxGeometry x="440.5" y="1190" width="120" height="60" as="geometry" />
        </mxCell>
        <mxCell id="WC0ZGZ3eZQcWdwqWbL3J-23" value="" style="endArrow=none;html=1;rounded=0;entryX=0.5;entryY=1;entryDx=0;entryDy=0;" edge="1" parent="1" target="WC0ZGZ3eZQcWdwqWbL3J-16">
          <mxGeometry width="50" height="50" relative="1" as="geometry">
            <mxPoint x="219.5" y="1220" as="sourcePoint" />
            <mxPoint x="219.5" y="1100" as="targetPoint" />
          </mxGeometry>
        </mxCell>
        <mxCell id="WC0ZGZ3eZQcWdwqWbL3J-24" value="" style="endArrow=classic;html=1;rounded=0;entryX=0;entryY=1;entryDx=0;entryDy=0;" edge="1" parent="1">
          <mxGeometry width="50" height="50" relative="1" as="geometry">
            <mxPoint x="220" y="1220" as="sourcePoint" />
            <mxPoint x="440.5" y="1219.5" as="targetPoint" />
          </mxGeometry>
        </mxCell>
        <mxCell id="WC0ZGZ3eZQcWdwqWbL3J-25" value="" style="endArrow=none;html=1;rounded=0;" edge="1" parent="1">
          <mxGeometry width="50" height="50" relative="1" as="geometry">
            <mxPoint x="660" y="1220" as="sourcePoint" />
            <mxPoint x="660" y="460" as="targetPoint" />
          </mxGeometry>
        </mxCell>
        <mxCell id="WC0ZGZ3eZQcWdwqWbL3J-26" value="" style="endArrow=none;html=1;rounded=0;" edge="1" parent="1">
          <mxGeometry width="50" height="50" relative="1" as="geometry">
            <mxPoint x="560.5" y="1220" as="sourcePoint" />
            <mxPoint x="660" y="1220" as="targetPoint" />
          </mxGeometry>
        </mxCell>
        <mxCell id="WC0ZGZ3eZQcWdwqWbL3J-27" value="" style="endArrow=classic;html=1;rounded=0;entryX=1.033;entryY=0.622;entryDx=0;entryDy=0;entryPerimeter=0;" edge="1" parent="1">
          <mxGeometry width="50" height="50" relative="1" as="geometry">
            <mxPoint x="660" y="460" as="sourcePoint" />
            <mxPoint x="413.00000000000006" y="460.32000000000005" as="targetPoint" />
          </mxGeometry>
        </mxCell>
        <mxCell id="WC0ZGZ3eZQcWdwqWbL3J-28" value="" style="endArrow=classic;html=1;rounded=0;entryX=0.5;entryY=0;entryDx=0;entryDy=0;" edge="1" parent="1" target="WC0ZGZ3eZQcWdwqWbL3J-22">
          <mxGeometry width="50" height="50" relative="1" as="geometry">
            <mxPoint x="500" y="1130" as="sourcePoint" />
            <mxPoint x="550" y="1080" as="targetPoint" />
          </mxGeometry>
        </mxCell>
        <mxCell id="WC0ZGZ3eZQcWdwqWbL3J-29" value="&lt;font style=&quot;font-size: 14px;&quot; face=&quot;Comic Sans MS&quot;&gt;Tidak&lt;/font&gt;" style="text;html=1;align=center;verticalAlign=middle;resizable=0;points=[];autosize=1;strokeColor=none;fillColor=none;" vertex="1" parent="1">
          <mxGeometry x="160" y="750" width="60" height="30" as="geometry" />
        </mxCell>
        <mxCell id="WC0ZGZ3eZQcWdwqWbL3J-30" value="&#xa;&lt;span style=&quot;color: rgb(0, 0, 0); font-family: &amp;quot;Comic Sans MS&amp;quot;; font-size: 14px; font-style: normal; font-variant-ligatures: normal; font-variant-caps: normal; font-weight: 400; letter-spacing: normal; orphans: 2; text-align: center; text-indent: 0px; text-transform: none; widows: 2; word-spacing: 0px; -webkit-text-stroke-width: 0px; white-space: normal; background-color: rgb(251, 251, 251); text-decoration-thickness: initial; text-decoration-style: initial; text-decoration-color: initial; display: inline !important; float: none;&quot;&gt;Mulai&lt;/span&gt;&#xa;&#xa;" style="ellipse;whiteSpace=wrap;html=1;" vertex="1" parent="1">
          <mxGeometry x="294" y="30" width="120" height="80" as="geometry" />
        </mxCell>
      </root>
    </mxGraphModel>
  </diagram>
</mxfile>
